<?xml version="1.0" encoding="UTF-8" standalone="no"?>
<svg
   xmlns:dc="http://purl.org/dc/elements/1.1/"
   xmlns:cc="http://creativecommons.org/ns#"
   xmlns:rdf="http://www.w3.org/1999/02/22-rdf-syntax-ns#"
   xmlns:svg="http://www.w3.org/2000/svg"
   xmlns="http://www.w3.org/2000/svg"
   viewBox="0 0 712.54669 951.77332"
   height="951.77332"
   width="712.54669"
   xml:space="preserve"
   id="svg2"
   version="1.1"><metadata
     id="metadata8"><rdf:RDF><cc:Work
         rdf:about=""><dc:format>image/svg+xml</dc:format><dc:type
           rdf:resource="http://purl.org/dc/dcmitype/StillImage" /></cc:Work></rdf:RDF></metadata><defs
     id="defs6" /><g
     transform="matrix(1.3333333,0,0,-1.3333333,0,951.77333)"
     id="g10"><g
       transform="scale(0.1)"
       id="g12"><path
         id="path14"
         style="fill:#17194a;fill-opacity:1;fill-rule:nonzero;stroke:none"
         d="m 722.996,226.07 226.07,298.59 H 693.137 Z" /><path
         id="path16"
         style="fill:#23256e;fill-opacity:1;fill-rule:nonzero;stroke:none"
         d="M 949.066,524.66 693.137,938.41 V 524.66 Z" /><path
         id="path18"
         style="fill:#440f48;fill-opacity:1;fill-rule:nonzero;stroke:none"
         d="M 862.938,663.898 983.191,1215.66 693.137,938.41 Z" /><path
         id="path20"
         style="fill:#8a1c55;fill-opacity:1;fill-rule:nonzero;stroke:none"
         d="M 983.191,1215.66 1192.2,1727.52 885.086,1659.27 Z" /><path
         id="path22"
         style="fill:#5c144e;fill-opacity:1;fill-rule:nonzero;stroke:none"
         d="m 693.137,938.41 191.949,720.86 98.105,-443.61 z" /><path
         id="path24"
         style="fill:#ba084a;fill-opacity:1;fill-rule:nonzero;stroke:none"
         d="m 1192.2,1727.52 464.93,349.77 -772.044,-418.02 z" /><path
         id="path26"
         style="fill:#a60d2c;fill-opacity:1;fill-rule:nonzero;stroke:none"
         d="m 1657.13,2077.29 -528.91,-46.92 -243.134,-371.1 z" /><path
         id="path28"
         style="fill:#880046;fill-opacity:1;fill-rule:nonzero;stroke:none"
         d="m 1128.22,2030.37 618.49,635.55 -89.58,-588.63 z" /><path
         id="path30"
         style="fill:#b01419;fill-opacity:1;fill-rule:nonzero;stroke:none"
         d="m 1657.13,2077.29 1017.29,477.73 -927.71,110.9 z" /><path
         id="path32"
         style="fill:#a61217;fill-opacity:1;fill-rule:nonzero;stroke:none"
         d="m 2674.42,2555.02 1047.2,46.92 -571.57,575.84 z" /><path
         id="path34"
         style="fill:#d91920;fill-opacity:1;fill-rule:nonzero;stroke:none"
         d="m 1746.71,2665.92 1403.34,511.86 -475.63,-622.76 z" /><path
         id="path36"
         style="fill:#f25c19;fill-opacity:1;fill-rule:nonzero;stroke:none"
         d="M 1534.24,2447.59 808.305,3510.48 1746.71,2665.92 Z" /><path
         id="path38"
         style="fill:#f03838;fill-opacity:1;fill-rule:nonzero;stroke:none"
         d="m 1218.83,3141.01 1931.22,36.77 -1403.34,-511.86 z" /><path
         id="path40"
         style="fill:#f79210;fill-opacity:1;fill-rule:nonzero;stroke:none"
         d="m 808.305,3510.48 375.365,98.11 35.16,-467.58 z" /><path
         id="path42"
         style="fill:#f57c14;fill-opacity:1;fill-rule:nonzero;stroke:none"
         d="m 1183.67,3608.59 383.97,-460.94 -348.81,-6.64 z" /><path
         id="path44"
         style="fill:#ed114e;fill-opacity:1;fill-rule:nonzero;stroke:none"
         d="m 3150.05,3177.78 618.49,430.81 -46.92,-1006.65 z" /><path
         id="path46"
         style="fill:#7d0f6b;fill-opacity:1;fill-rule:nonzero;stroke:none"
         d="M 3721.62,2601.94 4254.8,1591.02 4493.67,2891.99 Z" /><path
         id="path48"
         style="fill:#281549;fill-opacity:1;fill-rule:nonzero;stroke:none"
         d="m 4328.38,1991.78 288.99,-592.7 -362.57,191.94 z" /><path
         id="path50"
         style="fill:#23256e;fill-opacity:1;fill-rule:nonzero;stroke:none"
         d="m 4254.8,1591.02 -46.92,-699.532 409.49,507.592 z" /><path
         id="path52"
         style="fill:#2e3192;fill-opacity:1;fill-rule:nonzero;stroke:none"
         d="m 4617.37,1399.08 -332.71,-938.4 -76.78,430.808 z" /><path
         id="path54"
         style="fill:#0e5f9d;fill-opacity:1;fill-rule:nonzero;stroke:none"
         d="M 4207.88,891.488 3981.81,255.93 4284.66,460.68 Z" /><path
         id="path56"
         style="fill:#0085bc;fill-opacity:1;fill-rule:nonzero;stroke:none"
         d="M 4284.66,460.68 4107.64,0 3981.81,255.93 Z" /><path
         id="path58"
         style="fill:#26b9f1;fill-opacity:1;fill-rule:nonzero;stroke:none"
         d="M 3981.81,255.93 3760.01,0 h 347.63 z" /><path
         id="path60"
         style="fill:#851f77;fill-opacity:1;fill-rule:nonzero;stroke:none"
         d="m 4493.67,2891.99 -725.13,716.6 -46.92,-1006.65 z" /><path
         id="path62"
         style="fill:#70174e;fill-opacity:1;fill-rule:nonzero;stroke:none"
         d="m 4493.67,2891.99 157.82,740.06 -882.95,-23.46 z" /><path
         id="path64"
         style="fill:#281549;fill-opacity:1;fill-rule:nonzero;stroke:none"
         d="m 4493.67,2891.99 237.8,442.54 -79.98,297.52 z" /><path
         id="path66"
         style="fill:#2744a0;fill-opacity:1;fill-rule:nonzero;stroke:none"
         d="m 4651.49,2157.26 406.28,-511.85 -591.83,172.75 z" /><path
         id="path68"
         style="fill:#125582;fill-opacity:1;fill-rule:nonzero;stroke:none"
         d="M 5057.77,1645.41 5003.39,906.418 4761.86,1731.78 Z" /><path
         id="path70"
         style="fill:#005e8a;fill-opacity:1;fill-rule:nonzero;stroke:none"
         d="m 4465.94,1818.16 427.83,-537.15 -131.91,450.77 z" /><path
         id="path72"
         style="fill:#0e3463;fill-opacity:1;fill-rule:nonzero;stroke:none"
         d="m 4651.49,2157.26 -157.82,734.73 -134.9,-734.73 z" /><path
         id="path74"
         style="fill:#084673;fill-opacity:1;fill-rule:nonzero;stroke:none"
         d="m 4358.77,2157.26 107.17,-339.1 185.55,339.1 z" /><path
         id="path76"
         style="fill:#0f354c;fill-opacity:1;fill-rule:nonzero;stroke:none"
         d="m 4731.47,3334.53 -189.24,-668.61 -48.56,226.07 z" /><path
         id="path78"
         style="fill:#ba084a;fill-opacity:1;fill-rule:nonzero;stroke:none"
         d="m 4651.49,3632.05 -770.98,598.23 -111.97,-621.69 z" /><path
         id="path80"
         style="fill:#a60c2f;fill-opacity:1;fill-rule:nonzero;stroke:none"
         d="m 4651.49,3632.05 -246.33,377.49 -524.65,220.74 z" /><path
         id="path82"
         style="fill:#a60d2c;fill-opacity:1;fill-rule:nonzero;stroke:none"
         d="m 3880.51,4230.28 -1068.5,-108.77 956.53,-512.92 z" /><path
         id="path84"
         style="fill:#ba151b;fill-opacity:1;fill-rule:nonzero;stroke:none"
         d="m 3150.05,3177.78 -338.04,943.73 956.53,-512.92 z" /><path
         id="path86"
         style="fill:#f14a54;fill-opacity:1;fill-rule:nonzero;stroke:none"
         d="m 1567.64,3147.65 1355.54,663.5 226.87,-633.37 z" /><path
         id="path88"
         style="fill:#f03838;fill-opacity:1;fill-rule:nonzero;stroke:none"
         d="m 2231.17,3472.43 580.84,649.08 111.17,-310.36 z" /><path
         id="path90"
         style="fill:#f9a72b;fill-opacity:1;fill-rule:nonzero;stroke:none"
         d="m 1183.67,3608.59 1047.5,-136.16 -663.53,-324.78 z" /><path
         id="path92"
         style="fill:#f9a72b;fill-opacity:1;fill-rule:nonzero;stroke:none"
         d="m 2812.01,4121.51 -1196.47,47.99 615.63,-697.07 z" /><path
         id="path94"
         style="fill:#fcd205;fill-opacity:1;fill-rule:nonzero;stroke:none"
         d="m 1615.54,4169.5 -431.87,-560.91 1047.5,-136.16 z" /><path
         id="path96"
         style="fill:#cce310;fill-opacity:1;fill-rule:nonzero;stroke:none"
         d="m 1183.67,3608.59 -108.77,388.16 540.64,172.75 z" /><path
         id="path98"
         style="fill:#00a770;fill-opacity:1;fill-rule:nonzero;stroke:none"
         d="M 1615.54,4169.5 1465.19,5001.26 1074.9,3996.75 Z" /><path
         id="path100"
         style="fill:#fcd205;fill-opacity:1;fill-rule:nonzero;stroke:none"
         d="m 1074.9,3996.75 -266.595,-486.27 375.365,98.11 z" /><path
         id="path102"
         style="fill:#f9a72b;fill-opacity:1;fill-rule:nonzero;stroke:none"
         d="m 808.305,3510.48 -146.09,534.25 412.685,-47.98 z" /><path
         id="path104"
         style="fill:#fff200;fill-opacity:1;fill-rule:nonzero;stroke:none"
         d="M 662.215,4044.73 1285.76,4539.46 1074.9,3996.75 Z" /><path
         id="path106"
         style="fill:#bfdf14;fill-opacity:1;fill-rule:nonzero;stroke:none"
         d="m 662.215,4044.73 146.09,412.69 477.455,82.04 z" /><path
         id="path108"
         style="fill:#132b37;fill-opacity:1;fill-rule:nonzero;stroke:none"
         d="m 4543.87,3796.97 257.98,-260.9 -70.38,-201.54 -84.98,274.06 -102.62,188.38" /><path
         id="path110"
         style="fill:#632d46;fill-opacity:1;fill-rule:nonzero;stroke:none"
         d="m 4801.85,3536.07 v -614.22 l -70.38,412.68 z" /><path
         id="path112"
         style="fill:#4f1942;fill-opacity:1;fill-rule:nonzero;stroke:none"
         d="m 4598.97,2866.4 202.88,55.45 -70.38,412.68 z" /><path
         id="path114"
         style="fill:#851132;fill-opacity:1;fill-rule:nonzero;stroke:none"
         d="m 4801.85,2921.85 137.56,-281.52 -340.44,226.07 z" /><path
         id="path116"
         style="fill:#0f868e;fill-opacity:1;fill-rule:nonzero;stroke:none"
         d="m 1465.19,5001.26 -345.51,393.49 345.51,-63.98 z" /><path
         id="path118"
         style="fill:#a6d71c;fill-opacity:1;fill-rule:nonzero;stroke:none"
         d="m 808.305,4457.42 -50.117,291.11 527.572,-209.07 z" /><path
         id="path120"
         style="fill:#59c134;fill-opacity:1;fill-rule:nonzero;stroke:none"
         d="m 758.188,4748.53 707.002,252.73 -179.43,-461.8 z" /><path
         id="path122"
         style="fill:#00a770;fill-opacity:1;fill-rule:nonzero;stroke:none"
         d="m 758.188,4748.53 361.492,646.22 345.51,-393.49 z" /><path
         id="path124"
         style="fill:#05768d;fill-opacity:1;fill-rule:nonzero;stroke:none"
         d="M 758.188,4748.53 H 527.852 l 591.828,646.22 z" /><path
         id="path126"
         style="fill:#3c63b8;fill-opacity:1;fill-rule:nonzero;stroke:none"
         d="m 696.152,4932.3 62.036,408.07 361.492,54.38 z" /><path
         id="path128"
         style="fill:#00a770;fill-opacity:1;fill-rule:nonzero;stroke:none"
         d="m 527.852,4748.53 280.453,-291.11 -50.117,291.11 z" /><path
         id="path130"
         style="fill:#59c134;fill-opacity:1;fill-rule:nonzero;stroke:none"
         d="m 527.852,4748.53 -86.375,-209.07 366.828,-82.04 z" /><path
         id="path132"
         style="fill:#73c82c;fill-opacity:1;fill-rule:nonzero;stroke:none"
         d="M 808.305,4457.42 563.043,4406.23 441.477,4539.46 Z" /><path
         id="path134"
         style="fill:#00abb7;fill-opacity:1;fill-rule:nonzero;stroke:none"
         d="m 696.152,4932.3 -104.32,231.22 166.356,176.85 z" /><path
         id="path136"
         style="fill:#4dc6f4;fill-opacity:1;fill-rule:nonzero;stroke:none"
         d="m 605.895,4833.75 27.39,237.89 62.867,-139.34 z" /><path
         id="path138"
         style="fill:#005d4f;fill-opacity:1;fill-rule:nonzero;stroke:none"
         d="m 1465.19,5330.77 271.92,243.13 499.06,44.79 z" /><path
         id="path140"
         style="fill:#0f868e;fill-opacity:1;fill-rule:nonzero;stroke:none"
         d="m 2236.17,5618.69 -163.15,-364.7 -607.83,76.78 z" /><path
         id="path142"
         style="fill:#0799b5;fill-opacity:1;fill-rule:nonzero;stroke:none"
         d="m 2073.02,5253.99 -607.83,-117.66 v 194.44 z" /><path
         id="path144"
         style="fill:#005d28;fill-opacity:1;fill-rule:nonzero;stroke:none"
         d="M 758.188,5340.37 553.445,5545.11 73.5781,5599.49 Z" /><path
         id="path146"
         style="fill:#0b686e;fill-opacity:1;fill-rule:nonzero;stroke:none"
         d="M 591.832,5163.52 73.5781,5599.49 758.188,5340.37 Z" /><path
         id="path148"
         style="fill:#0799b5;fill-opacity:1;fill-rule:nonzero;stroke:none"
         d="M 73.5781,5599.49 271.922,5282.78 591.832,5163.52 Z" /><path
         id="path150"
         style="fill:#ba084a;fill-opacity:1;fill-rule:nonzero;stroke:none"
         d="m 1119.68,5394.75 259.13,204.74 -86.37,-236.73 z" /><path
         id="path152"
         style="fill:#ec0677;fill-opacity:1;fill-rule:nonzero;stroke:none"
         d="m 1292.44,5362.76 364.69,255.93 -278.32,-19.2 z" /><path
         id="path154"
         style="fill:#a0148e;fill-opacity:1;fill-rule:nonzero;stroke:none"
         d="m 1474.78,5490.72 262.33,83.18 -79.98,44.79 z" /><path
         id="path156"
         style="fill:#6e126b;fill-opacity:1;fill-rule:nonzero;stroke:none"
         d="m 1657.13,5618.69 431.88,201.54 -351.9,-246.33 z" /><path
         id="path158"
         style="fill:#a11971;fill-opacity:1;fill-rule:nonzero;stroke:none"
         d="m 1737.11,5573.9 403.09,172.75 -51.19,73.58 z" /><path
         id="path160"
         style="fill:#ec047c;fill-opacity:1;fill-rule:nonzero;stroke:none"
         d="m 2140.2,5746.65 243.13,351.9 -294.32,-278.32 z" /><path
         id="path162"
         style="fill:#8d0e5c;fill-opacity:1;fill-rule:nonzero;stroke:none"
         d="m 2089.01,5820.23 v 335.91 l 147.16,-196.75 z" /><path
         id="path164"
         style="fill:#5c144e;fill-opacity:1;fill-rule:nonzero;stroke:none"
         d="m 2089.01,6156.14 -431.88,227.13 431.88,-323.11 z" /><path
         id="path166"
         style="fill:#7a1d90;fill-opacity:1;fill-rule:nonzero;stroke:none"
         d="m 2383.33,6098.55 63.98,515.06 -143.21,-589.98 z" /><path
         id="path168"
         style="fill:#6e126b;fill-opacity:1;fill-rule:nonzero;stroke:none"
         d="m 2178.31,6036.75 112.24,224.96 -201.54,-105.57 z" /><path
         id="path170"
         style="fill:#bd0c8d;fill-opacity:1;fill-rule:nonzero;stroke:none"
         d="m 2290.55,6261.71 44.79,284.72 -145.56,-337.51 z" /><path
         id="path172"
         style="fill:#ec047c;fill-opacity:1;fill-rule:nonzero;stroke:none"
         d="m 2335.34,6546.43 -72.78,451.07 8.73,-599.58 z" /><path
         id="path174"
         style="fill:#7a1d90;fill-opacity:1;fill-rule:nonzero;stroke:none"
         d="m 2271.29,6397.92 -156.69,148.51 156.69,-74.26 z" /><path
         id="path176"
         style="fill:#a6083d;fill-opacity:1;fill-rule:nonzero;stroke:none"
         d="m 1378.81,5599.49 -33.59,388.69 -52.78,-456.93 z" /><path
         id="path178"
         style="fill:#7a1d90;fill-opacity:1;fill-rule:nonzero;stroke:none"
         d="M 947.461,5368.84 483.063,5839.43 808.305,5347.91 Z" /><path
         id="path180"
         style="fill:#23256e;fill-opacity:1;fill-rule:nonzero;stroke:none"
         d="m 483.063,5839.43 -179.149,25.59 423.649,-395.09 z" /><path
         id="path182"
         style="fill:#17194a;fill-opacity:1;fill-rule:nonzero;stroke:none"
         d="M 869.156,5448.19 823.77,6036.75 745.098,5573.9 Z" /><path
         id="path184"
         style="fill:#47165e;fill-opacity:1;fill-rule:nonzero;stroke:none"
         d="m 483.063,5839.43 v 761.38 L 370.648,5855.49 Z" /><path
         id="path186"
         style="fill:#a11971;fill-opacity:1;fill-rule:nonzero;stroke:none"
         d="m 483.063,6108.15 275.125,342.3 -275.125,-188.74 z" /><path
         id="path188"
         style="fill:#ec086d;fill-opacity:1;fill-rule:nonzero;stroke:none"
         d="m 483.063,6600.81 -134.36,262.33 77.184,-641.42 z" /><path
         id="path190"
         style="fill:#84085c;fill-opacity:1;fill-rule:nonzero;stroke:none"
         d="M 426.855,6710.55 691.004,7138.26 483.063,6600.81 Z" /><path
         id="path192"
         style="fill:#ec0772;fill-opacity:1;fill-rule:nonzero;stroke:none"
         d="M 303.914,5865.02 0,6279.3 l 380.77,-356.7 -10.122,-67.11 -66.734,9.53" /><path
         id="path194"
         style="fill:#a60c2f;fill-opacity:1;fill-rule:nonzero;stroke:none"
         d="m 0,6279.3 60.7813,583.84 14.3476,-654.22 z" /><path
         id="path196"
         style="fill:#7a1d90;fill-opacity:1;fill-rule:nonzero;stroke:none"
         d="M 131.477,6156.14 303.914,6626.4 217.695,6075.37 Z" /><path
         id="path198"
         style="fill:#600947;fill-opacity:1;fill-rule:nonzero;stroke:none"
         d="m 2184.44,2324.91 -53.84,-921.57 -383.89,716.01 z" /><path
         id="path200"
         style="fill:#4d155e;fill-opacity:1;fill-rule:nonzero;stroke:none"
         d="M 2171.71,2106.99 2335.34,1433.2 2130.6,1403.34 Z" /><path
         id="path202"
         style="fill:#7e1355;fill-opacity:1;fill-rule:nonzero;stroke:none"
         d="M 2335.34,1433.2 2309.75,686.742 2130.6,1403.34 Z" /><path
         id="path204"
         style="fill:#a11971;fill-opacity:1;fill-rule:nonzero;stroke:none"
         d="m 2335.34,1433.2 162.09,-793.38 -187.68,46.922 z" /><path
         id="path206"
         style="fill:#ba0a42;fill-opacity:1;fill-rule:nonzero;stroke:none"
         d="m 2497.43,639.82 -93.84,-511.851 -93.84,558.773 z" /><path
         id="path208"
         style="fill:#a60d2c;fill-opacity:1;fill-rule:nonzero;stroke:none"
         d="m 2130.6,127.969 217.13,332.64 55.86,-332.64 z" /><path
         id="path210"
         style="fill:#005e8a;fill-opacity:1;fill-rule:nonzero;stroke:none"
         d="m 5047.31,1503.23 296.78,-972.71 -340.7,375.898 z" /><path
         id="path212"
         style="fill:#0085bc;fill-opacity:1;fill-rule:nonzero;stroke:none"
         d="m 5003.39,906.418 91.17,-445.738 249.53,69.84 z" /><path
         id="path214"
         style="fill:#33bdf2;fill-opacity:1;fill-rule:nonzero;stroke:none"
         d="m 5344.09,530.52 -220.73,-398.29 -28.8,328.45 z" /><path
         id="path216"
         style="fill:#0799b5;fill-opacity:1;fill-rule:nonzero;stroke:none"
         d="m 5123.36,132.23 h -268.73 l 239.93,328.45 z" /></g></g></svg>