<?xml version="1.0" standalone="no"?>
<!DOCTYPE svg PUBLIC "-//W3C//DTD SVG 20010904//EN"
 "http://www.w3.org/TR/2001/REC-SVG-20010904/DTD/svg10.dtd">
<svg version="1.0" xmlns="http://www.w3.org/2000/svg"
 width="952.000000pt" height="952.000000pt" viewBox="0 0 952.000000 952.000000"
 preserveAspectRatio="xMidYMid meet">
<metadata>
Created by potrace 1.11, written by Peter Selinger 2001-2013
</metadata>
<g transform="translate(0.000000,952.000000) scale(0.100000,-0.100000)"
fill="#000000" stroke="none">
<path d="M2059 9418 c-24 -40 -46 -75 -49 -78 -3 -3 -32 -50 -64 -105 -33 -55
-62 -102 -66 -105 -6 -5 -61 -95 -88 -146 -7 -13 -16 -24 -20 -24 -4 0 -27 38
-51 85 -25 47 -48 85 -52 85 -4 0 -3 -17 1 -37 7 -33 12 -73 25 -193 2 -14 6
-52 10 -85 4 -33 9 -71 10 -85 2 -14 6 -45 9 -70 4 -25 8 -59 11 -77 2 -18 6
-37 10 -43 3 -5 1 -10 -5 -10 -6 0 -8 -5 -5 -11 7 -10 18 -83 19 -126 1 -13 3
-23 6 -23 12 0 3 -129 -16 -235 -2 -10 -6 -37 -9 -60 -4 -22 -9 -53 -12 -70
-3 -16 -7 -41 -8 -55 -2 -14 -3 -28 -4 -32 -2 -18 -24 -2 -120 90 -110 105
-105 94 -86 182 3 14 7 43 10 65 13 90 25 168 31 195 2 14 6 39 8 55 2 17 6
48 10 70 7 45 15 97 20 135 2 14 7 37 11 53 5 17 3 27 -4 27 -6 0 -10 -3 -9
-7 0 -5 -2 -15 -5 -23 -6 -14 -26 -68 -62 -170 -8 -25 -20 -54 -25 -65 -19
-43 -103 -281 -103 -292 0 -21 -20 -15 -54 18 -29 26 -33 37 -34 82 0 29 -2
133 -5 233 -2 100 -6 261 -7 357 -2 97 -6 179 -9 182 -2 3 -5 -1 -5 -8 -1 -26
-14 -173 -19 -202 -2 -16 -6 -57 -9 -90 -2 -33 -5 -60 -5 -60 -2 0 -7 -44 -14
-125 -7 -66 -10 -94 -21 -187 -7 -51 -6 -55 42 -120 26 -36 62 -85 78 -109 17
-23 67 -93 113 -155 46 -63 91 -125 100 -138 9 -13 25 -32 35 -43 9 -10 17
-21 17 -25 0 -5 37 -42 81 -83 45 -41 100 -92 123 -114 22 -21 84 -78 136
-127 200 -186 249 -236 294 -303 25 -37 46 -72 46 -76 0 -12 -42 -20 -59 -10
-9 4 -70 63 -136 130 -66 67 -127 125 -136 130 -9 5 -45 12 -80 15 -85 8 -136
14 -179 20 -19 3 -60 7 -90 10 -30 2 -66 6 -80 9 -14 3 -56 8 -95 11 -38 3
-78 8 -87 11 -10 3 -18 1 -18 -5 0 -13 42 -85 52 -89 4 -2 8 -8 8 -12 0 -5 41
-73 90 -152 50 -78 90 -145 90 -149 0 -4 37 -22 83 -39 45 -17 91 -35 102 -39
60 -26 232 -86 243 -85 6 1 12 -2 12 -7 0 -5 12 -35 28 -66 15 -32 26 -67 25
-78 -1 -11 -4 -42 -8 -70 -3 -27 -8 -63 -9 -80 -18 -157 -15 -147 -66 -200
-26 -27 -57 -72 -69 -100 -13 -27 -27 -59 -32 -70 -11 -26 -32 -79 -33 -85 -1
-3 -5 -11 -9 -18 -5 -7 -12 -26 -17 -42 -7 -25 -4 -34 18 -58 15 -16 51 -56
81 -90 30 -34 58 -59 62 -57 6 4 53 15 174 40 17 3 44 8 60 11 17 3 42 11 56
18 25 12 26 12 22 -8 -3 -12 -8 -30 -13 -41 -5 -11 -18 -47 -29 -80 -46 -137
-103 -301 -111 -320 -41 -90 -41 -89 13 -285 23 -81 48 -171 57 -205 4 -16 15
-57 25 -90 9 -33 18 -67 20 -75 2 -8 13 -45 23 -82 11 -38 17 -68 15 -68 -4 0
10 -19 40 -51 9 -10 14 -19 11 -19 -8 0 67 -104 78 -108 4 -2 8 -8 8 -13 0 -6
37 -65 83 -132 46 -67 132 -194 192 -282 59 -88 116 -169 127 -181 10 -11 18
-24 18 -30 0 -5 21 -36 45 -69 24 -33 48 -65 52 -71 5 -5 13 -18 18 -27 6 -9
51 -75 100 -148 50 -72 97 -142 105 -155 8 -12 34 -50 57 -83 l41 -59 -26 -25
c-36 -32 -482 -493 -521 -537 -17 -19 -31 -41 -31 -47 0 -7 -4 -13 -10 -13 -5
0 -10 -4 -10 -9 0 -9 -156 -252 -178 -277 -5 -6 -13 -20 -16 -32 -4 -12 -11
-22 -15 -22 -13 0 -42 -60 -35 -72 4 -6 3 -8 -4 -4 -11 7 -21 -4 -27 -31 -2
-10 -16 -61 -30 -113 -14 -52 -27 -102 -29 -110 -2 -8 -11 -42 -20 -75 -9 -33
-18 -67 -20 -76 -3 -9 -19 -69 -36 -135 -18 -65 -33 -123 -35 -129 -7 -33 -17
-72 -22 -85 -3 -8 -7 -22 -8 -30 -2 -8 -6 -24 -9 -35 -39 -135 -41 -160 -40
-462 1 -164 4 -316 7 -338 10 -68 24 -213 26 -270 l1 -30 36 40 c20 22 43 51
52 65 9 13 61 83 115 154 53 71 97 134 97 140 0 6 -14 31 -31 56 -43 65 -77
133 -73 150 1 8 5 24 8 35 11 46 25 112 30 135 2 14 16 79 31 145 15 66 28
129 31 140 3 17 11 51 20 88 1 4 2 8 4 10 1 1 3 11 4 22 6 43 29 141 39 165 6
14 11 27 12 30 1 3 7 16 13 30 31 67 94 226 95 238 0 6 4 12 9 12 4 0 8 6 8
14 0 7 8 31 17 52 9 22 18 45 19 53 2 8 9 18 16 22 7 5 10 9 6 9 -4 0 11 43
32 96 38 92 52 111 116 154 46 31 237 176 267 203 17 15 35 27 39 27 4 0 18
10 32 23 13 12 34 29 46 37 31 21 71 53 90 70 26 23 50 38 115 70 70 35 81 36
89 13 3 -10 10 -25 15 -33 10 -14 76 -138 186 -345 26 -49 59 -110 73 -135 71
-130 174 -323 202 -378 9 -18 19 -30 23 -26 3 3 5 -2 5 -12 -2 -19 18 -115 29
-144 8 -19 9 -22 27 -105 9 -38 18 -77 20 -85 14 -49 39 -147 41 -160 2 -8 4
-15 5 -15 1 0 3 -11 6 -25 2 -14 16 -70 30 -124 14 -55 27 -107 29 -115 2 -9
13 -50 24 -91 18 -69 35 -153 47 -240 2 -19 7 -46 10 -60 18 -97 22 -87 -81
-246 -54 -82 -115 -174 -136 -205 -65 -95 -75 -88 130 -89 167 0 181 1 182 17
0 10 2 25 4 33 2 8 7 31 10 50 4 19 9 46 11 60 3 14 7 36 9 50 3 22 24 136 39
210 24 120 38 202 41 240 2 36 -45 295 -101 545 -2 11 -7 36 -10 55 -4 19 -9
44 -11 55 -3 11 -6 29 -8 40 -2 11 -11 54 -20 95 -9 41 -18 91 -21 110 -3 19
-7 37 -9 40 -2 3 -6 25 -10 50 -4 25 -10 49 -13 55 -4 5 -8 21 -9 35 -1 14 -7
45 -14 70 -6 25 -13 52 -14 60 -4 25 -16 73 -25 100 -5 14 -11 39 -14 55 -3
17 -7 40 -10 53 -3 12 -8 31 -11 42 -3 11 -7 28 -9 37 -37 153 -89 361 -93
373 -3 8 -7 22 -8 30 -1 8 -7 34 -13 57 -5 23 -8 44 -5 47 2 2 6 55 9 118 3
62 6 121 8 131 2 18 19 27 161 92 44 20 87 40 95 45 8 6 25 14 38 20 52 22
123 56 222 103 58 28 107 51 110 52 36 11 76 16 190 20 74 3 180 8 235 10 55
3 154 7 220 10 192 8 423 19 667 30 56 3 103 7 106 10 3 2 24 -33 48 -80 23
-46 65 -126 92 -177 27 -51 75 -142 107 -203 32 -60 74 -141 95 -180 62 -116
113 -213 185 -350 37 -71 84 -159 103 -195 20 -36 37 -71 38 -78 2 -8 10 -22
18 -31 9 -10 16 -23 16 -29 0 -6 7 -18 16 -26 8 -9 12 -16 7 -16 -5 0 -9 -10
-10 -22 0 -13 -3 -72 -7 -133 -4 -60 -9 -135 -11 -165 -6 -93 -15 -222 -20
-280 -5 -55 -15 -219 -18 -297 -1 -24 -5 -43 -9 -43 -5 0 -8 -7 -8 -16 0 -9
-6 -30 -14 -47 -8 -18 -29 -75 -46 -127 -18 -52 -36 -104 -41 -115 -5 -11 -31
-83 -58 -160 -131 -373 -126 -361 -188 -432 -32 -37 -69 -81 -83 -97 -14 -16
-32 -36 -41 -45 -8 -9 -37 -42 -63 -74 l-48 -57 229 0 c229 0 230 0 240 22 6
13 11 25 11 28 1 3 15 39 32 80 18 41 33 80 34 85 2 6 7 19 11 30 4 11 21 54
37 95 17 41 31 80 32 85 2 6 8 24 15 40 46 117 85 222 87 234 2 7 12 36 23 65
11 28 50 137 86 241 36 105 73 208 82 230 9 22 22 58 29 80 7 22 27 78 44 125
17 47 42 117 54 155 13 39 40 114 60 168 26 72 33 103 27 120 -9 23 -211 437
-313 642 -65 132 -65 126 -36 283 11 58 13 61 24 40 7 -12 10 -26 7 -31 -2 -4
0 -14 6 -21 6 -7 12 -21 14 -32 4 -22 48 -167 82 -268 21 -63 83 -153 225
-326 8 -10 22 -27 30 -37 8 -10 49 -61 90 -113 41 -52 87 -108 102 -125 15
-16 28 -33 28 -37 0 -4 6 -13 13 -20 76 -77 122 -158 143 -253 4 -20 66 -232
90 -309 13 -43 27 -94 30 -114 3 -19 8 -44 10 -56 2 -11 7 -37 10 -56 3 -19 8
-38 10 -41 2 -4 6 -24 10 -45 3 -22 9 -55 14 -74 5 -19 12 -51 15 -70 3 -19 8
-43 11 -53 3 -11 7 -29 9 -40 5 -34 15 -81 20 -94 2 -6 -7 -28 -20 -47 -40
-60 -70 -101 -75 -106 -8 -7 -220 -299 -220 -302 0 -2 78 -3 173 -3 148 0 176
3 190 17 10 9 17 23 17 32 0 8 6 21 13 28 7 7 35 54 62 103 28 50 56 102 65
117 8 15 32 60 54 100 21 40 42 75 45 78 18 12 33 69 23 84 -3 6 -8 18 -9 26
-1 8 -25 89 -53 180 -29 91 -58 185 -65 210 -7 25 -27 90 -45 145 -17 55 -33
109 -35 119 -3 11 -15 54 -29 95 -13 42 -31 99 -39 126 -40 132 -89 292 -94
305 -3 8 -8 22 -10 30 -4 15 -4 110 1 187 2 32 -3 48 -25 75 -15 18 -80 101
-145 183 -66 83 -127 159 -136 170 -9 11 -55 70 -103 130 -47 61 -97 122 -110
138 -14 15 -24 31 -23 35 1 4 -6 41 -15 82 -10 41 -19 84 -21 95 -9 46 -77
363 -86 400 -19 82 -21 102 -10 131 7 16 13 36 15 44 10 41 48 175 51 179 2 3
211 -133 249 -162 35 -27 191 -125 194 -122 2 2 -29 69 -68 148 -39 80 -71
150 -71 156 0 6 -3 11 -7 11 -24 0 -28 70 -27 455 l1 410 -163 165 c-196 199
-180 179 -283 338 l-84 130 -186 77 c-102 43 -204 86 -226 95 -22 10 -69 30
-105 45 -36 14 -85 36 -110 47 -57 27 -154 28 -330 4 -19 -3 -64 -8 -100 -11
-36 -3 -81 -7 -100 -10 -35 -4 -108 -11 -210 -21 -30 -2 -68 -7 -85 -9 -16 -2
-61 -7 -100 -10 -38 -3 -86 -8 -105 -10 -104 -12 -194 -21 -280 -29 -19 -2
-69 -7 -110 -11 -41 -5 -86 -8 -100 -8 -43 1 -330 13 -435 18 -55 3 -167 7
-250 10 -82 3 -190 7 -240 10 -196 8 -405 17 -510 20 -60 2 -117 4 -125 4 -12
1 -21 33 -39 139 -13 75 -25 146 -28 157 -7 31 -11 57 -17 95 -3 19 -8 46 -11
60 -8 38 -14 70 -25 130 -5 30 -12 69 -15 85 -3 17 -7 44 -10 60 -3 17 -7 41
-10 55 -10 48 -36 195 -41 230 -3 19 -8 42 -11 50 -4 8 -7 63 -7 122 l-2 107
51 10 c27 6 61 13 75 15 14 3 50 10 80 16 30 6 71 13 90 16 19 3 43 7 52 10
18 5 35 9 118 24 69 13 98 18 130 25 14 3 41 8 60 11 19 3 44 8 55 11 18 6 41
10 84 15 12 1 46 66 110 213 12 28 26 59 31 70 5 11 27 60 50 109 22 49 40 91
40 93 0 2 -35 1 -77 -2 -43 -4 -98 -8 -123 -10 -144 -12 -207 -18 -220 -20
-64 -11 -190 -15 -190 -5 0 6 8 13 18 16 9 3 26 10 37 14 11 5 43 18 70 30 28
12 59 25 70 30 11 5 43 18 70 30 28 12 59 25 70 30 11 5 49 21 85 37 36 15 66
30 68 33 2 6 76 107 91 126 4 5 14 21 21 34 7 13 17 29 21 34 5 6 20 25 34 42
14 18 25 36 25 42 0 6 3 12 8 14 4 2 25 30 47 63 22 33 43 62 48 63 4 2 7 10
7 18 0 8 4 14 9 14 5 0 12 28 16 63 4 34 9 73 11 87 6 40 11 81 18 140 4 30 9
71 11 90 2 19 7 58 10 85 4 28 11 81 16 119 15 112 3 88 -25 -49 -4 -17 -54
-221 -73 -295 -3 -14 -7 -29 -9 -35 -1 -5 -9 -41 -19 -80 -9 -38 -19 -79 -22
-90 -3 -11 -7 -33 -10 -50 -7 -47 -24 -77 -68 -117 -22 -21 -42 -37 -45 -38
-3 0 -20 24 -39 52 l-34 52 76 150 c70 141 83 179 92 281 2 17 4 30 5 30 2 0
6 20 15 80 21 134 22 149 11 205 -4 19 -9 46 -11 60 -2 14 -6 45 -10 70 -4 25
-9 54 -11 65 -1 11 -3 21 -4 23 -2 1 -3 10 -4 20 -3 20 -19 125 -21 132 -1 3
-5 29 -10 57 -4 29 -12 50 -16 47 -5 -3 -7 -9 -4 -14 3 -5 7 -148 9 -319 l4
-310 -42 20 c-22 11 -63 31 -90 45 -26 14 -50 23 -52 21 -2 -2 39 -45 91 -95
l96 -91 -16 -30 c-8 -17 -15 -37 -15 -46 0 -8 -4 -15 -10 -15 -5 0 -10 -8 -10
-17 0 -10 -15 -47 -33 -83 -29 -59 -37 -67 -95 -97 -65 -32 -86 -32 -127 0 -5
4 -53 29 -105 56 -96 49 -217 112 -299 157 -24 13 -47 22 -50 18 -3 -3 1 -9 9
-14 18 -11 44 -30 116 -85 29 -22 65 -49 80 -60 15 -11 43 -32 63 -47 20 -15
41 -31 46 -35 6 -5 28 -21 50 -38 22 -16 42 -33 43 -37 2 -4 9 -8 15 -8 7 0
30 -16 52 -35 l40 -35 1 -159 1 -159 -51 -23 c-28 -13 -54 -28 -58 -34 -4 -5
-8 -7 -8 -2 0 4 -24 -5 -52 -20 -29 -15 -55 -27 -58 -28 -7 -1 -95 -42 -153
-71 -27 -13 -55 -24 -63 -24 -8 0 -14 -4 -14 -10 0 -5 -4 -10 -10 -10 -5 0
-33 -11 -62 -24 -39 -19 -77 -26 -143 -30 -49 -3 -133 -8 -185 -11 l-95 -7 -1
44 c-1 39 -6 109 -20 258 -3 30 -7 81 -8 113 -3 55 -15 92 -17 51 0 -10 -2
-26 -3 -34 -6 -29 -19 -136 -22 -180 -2 -25 -6 -60 -8 -79 -3 -19 -8 -59 -11
-90 -3 -31 -7 -67 -10 -81 -3 -14 -6 -42 -7 -62 -1 -21 -4 -38 -8 -38 -4 0
-16 -8 -27 -17 -63 -55 -200 -158 -213 -160 -24 -4 -81 -13 -125 -18 -22 -3
-51 -7 -65 -10 -27 -5 -36 1 -92 61 -35 36 -38 45 -43 114 -3 41 -8 100 -11
130 -2 30 -7 87 -9 125 -3 39 -7 93 -10 120 -8 84 -18 228 -18 263 0 17 -3 32
-7 32 -8 0 -13 -23 -26 -104 -3 -21 -8 -48 -10 -60 -3 -11 -7 -36 -10 -55 -4
-35 -10 -66 -19 -111 -2 -13 -7 -42 -10 -65 -3 -22 -8 -47 -10 -55 -5 -19 -17
-91 -18 -107 0 -7 -2 -13 -5 -13 -2 0 -82 78 -176 174 l-171 173 0 184 c0 170
1 185 20 204 25 26 48 54 105 128 25 31 48 57 52 57 5 0 8 5 8 11 0 6 15 28
33 49 17 20 39 45 47 56 8 10 32 40 54 67 21 26 36 47 33 47 -3 0 -68 -43
-144 -95 -76 -52 -146 -101 -157 -107 -10 -7 -25 -19 -32 -26 -18 -17 -16 -34
-18 223 -2 217 -2 221 24 285 15 36 55 139 89 230 35 91 69 179 77 195 8 17
16 39 18 50 2 11 16 47 30 79 14 33 25 61 22 63 -2 2 -23 -29 -47 -69z m1501
-1976 c0 -5 -7 -9 -15 -9 -8 0 -12 4 -9 9 3 4 9 8 15 8 5 0 9 -4 9 -8z m-81
-43 c-19 -16 -60 -53 -93 -82 -32 -29 -73 -65 -91 -82 -134 -124 -138 -127
-175 -119 -19 3 -44 8 -55 10 -11 2 -33 6 -50 10 -16 3 -40 7 -52 8 -12 1 -25
4 -28 7 -3 3 50 44 117 91 104 71 138 89 223 115 111 35 137 43 147 43 4 1 22
7 40 15 50 22 55 18 17 -16z"/>
</g>
</svg>
